{"title":"Clash.Of.Empires.Battle.For.Asia.2011.480p.BRRip.XviD.Ac3.Feel-F","uid":6438088,"size":1603111085,"categoryP":"video","categoryS":"movies","magnet":"?xt=urn:btih:ac639c8e9db7eced45bf4d202ffd6c702061519f&amp;dn=Clash.Of.Empires.Battle.For.Asia.2011.480p.BRRip.XviD.Ac3.Feel-F&amp;tr=udp%3A%2F%2Ftracker.openbittorrent.com%3A80&amp;tr=udp%3A%2F%2Fopen.demonii.com%3A1337&amp;tr=udp%3A%2F%2Ftracker.coppersurfer.tk%3A6969&amp;tr=udp%3A%2F%2Fexodus.desync.com%3A6969","seeders":0,"leechers":1,"uploader":"HeroMaster","files":-1,"time":1306866665,"description":"Clash.Of.Empires.Battle.For.Asia.2011.480p.BRRip.XviD.Ac3.Feel-Free\n\nGenre:Action, Adventure\nLanguage:Mix of english and asian countries\nSource:BluRay.x264-METH\nSUBTITLE(S): English\n\nFormat : AVI\nFormat/Info : Audio Video Interleave\nFile size : 1.49 GiB\nDuration : 1h 49mn\nOverall bit rate : 1 956 Kbps\n\nVideo\nID : 0\nFormat : MPEG-4 Visual\nFormat profile : Advanced Simple@L5\nFormat settings, BVOP : Yes\nFormat settings, QPel : No\nFormat settings, GMC : No warppoints\nFormat settings, Matrix : Default (H.263)\nCodec ID : XVID\nCodec ID/Hint : XviD\nDuration : 1h 49mn\nBit rate : 1 498 Kbps\nWidth : 640 pixels\nHeight : 360 pixels\nDisplay aspect ratio : 16:9\nFrame rate : 24.000 fps\nColor space : YUV\nChroma subsampling : 4:2:0\nBit depth : 8 bits\nScan type : Progressive\nBits/(Pixel*Frame) : 0.271\nStream size : 1.14 GiB (77%)\nWriting library : XviD 1.2.1 (UTC 2008-12-04)\n\nAudio\nID : 1\nFormat : AC-3\nFormat/Info : Audio Coding 3\nMode extension : CM (complete main)\nCodec ID : 2000\nDuration : 1h 49mn\nBit rate mode : Constant\nBit rate : 448 Kbps\nChannel(s) : 6 channels\nChannel positions : Front: L C R, Side: L R, LFE\nSampling rate : 48.0 KHz\nBit depth : 16 bits\nStream size : 350 MiB (23%)\nAlignment : Aligned on interleaves\nInterleave, duration : 42 ms (1.00 video frame)\nInterleave, preload duration : 512 ms\n\n\nPlot:\n\nThe might of the two greatest superpowers of the ancient world collide\nin an almighty clash the likes of which have never been seen before\nin this stunning tale of magic, myth and legend. Combining epic action\nwith dazzling visual effects, and featuring an array of fighting styles\nand intense battles, Clash Of Empires is an action-packed thrill ride\nfrom sweeping start to blockbuster finale.\n\n\nScreens:\n\n &lt;a href=&quot;\nhttp://www.postimg.com/image/38000/photo-37669.jpg&quot; rel=&quot;nofollow&quot; target=&quot;_NEW&quot;&gt;\nhttp://www.postimg.com/image/38000/photo-37669.jpg&lt;/a&gt;\n &lt;a href=&quot;\nhttp://www.postimg.com/image/38000/photo-37670.jpg&quot; rel=&quot;nofollow&quot; target=&quot;_NEW&quot;&gt;\nhttp://www.postimg.com/image/38000/photo-37670.jpg&lt;/a&gt;\n &lt;a href=&quot;\nhttp://www.postimg.com/image/38000/photo-37671.jpg&quot; rel=&quot;nofollow&quot; target=&quot;_NEW&quot;&gt;\nhttp://www.postimg.com/image/38000/photo-37671.jpg&lt;/a&gt;\n\n\nENJOY!","torrent":{"xt":"urn:btih:ac639c8e9db7eced45bf4d202ffd6c702061519f","amp;dn":"Clash.Of.Empires.Battle.For.Asia.2011.480p.BRRip.XviD.Ac3.Feel-F","amp;tr":["udp%3A%2F%2Ftracker.openbittorrent.com%3A80","udp%3A%2F%2Fopen.demonii.com%3A1337","udp%3A%2F%2Ftracker.coppersurfer.tk%3A6969","udp%3A%2F%2Fexodus.desync.com%3A6969"],"infoHash":"ac639c8e9db7eced45bf4d202ffd6c702061519f","infoHashBuffer":{"type":"Buffer","data":[172,99,156,142,157,183,236,237,69,191,77,32,47,253,108,112,32,97,81,159]},"announce":[],"urlList":[]}}